name analog
datacolumns 19
datarows 42
range 0.0 0.0205
endheader
time	ground_force_vx	ground_force_vy	ground_force_vz	ground_force_px	ground_force_py	ground_force_pz	l_ground_force_vx	l_ground_force_vy	l_ground_force_vz	l_ground_force_px	l_ground_force_py	l_ground_force_pz	ground_torque_x	ground_torque_y	ground_torque_z	l_ground_torque_x	l_ground_torque_y	l_ground_torque_z
0.0	-0.0	-0.0	-0.0	-8.811983108520508	52.54726028442383	-444.4575805664063	3.4055917263031006	-53.469051361083984	-340.57672119140625	-0.0	-0.0	-0.0	-0.0	-0.0	-0.0	62284.18359375	35944.25390625	-6506.07470703125
0.0005	-0.0	-0.0	-0.0	-8.935761451721191	52.32476425170898	-444.653564453125	3.5680508613586426	-53.57686996459961	-340.2281188964844	-0.0	-0.0	-0.0	-0.0	-0.0	-0.0	62212.76953125	35978.8125	-6550.28076171875
0.001	-0.0	-0.0	-0.0	-8.881056785583496	52.610748291015625	-445.0280456542969	3.2329604625701904	-53.385498046875	-340.3453369140625	-0.0	-0.0	-0.0	-0.0	-0.0	-0.0	62059.28125	35924.79296875	-6567.013671875
0.0015	-0.0	-0.0	-0.0	-8.633349418640137	52.29393005371094	-444.3003540039063	3.070401430130005	-53.27263259887695	-339.3174743652344	-0.0	-0.0	-0.0	-0.0	-0.0	-0.0	61942.33984375	35999.625	-6511.0078125
0.002	-0.0	-0.0	-0.0	-9.07932949066162	52.6329345703125	-445.200439453125	3.1643707752227783	-53.36604690551758	-339.7245483398437	-0.0	-0.0	-0.0	-0.0	-0.0	-0.0	61977.30859375	35778.48828125	-6591.83642578125
0.0025	-0.0	-0.0	-0.0	-9.050682067871094	51.89408874511719	-443.2642822265625	3.1392838954925537	-53.32649230957031	-339.3182678222656	-0.0	-0.0	-0.0	-0.0	-0.0	-0.0	61828.08984375	35883.73828125	-6680.86962890625
0.003	-0.0	-0.0	-0.0	-9.140037536621094	52.01162338256836	-444.1639404296875	2.8930857181549072	-52.79648971557617	-337.5509948730469	-0.0	-0.0	-0.0	-0.0	-0.0	-0.0	61782.72265625	35743.8671875	-6512.5927734375
0.0035	-0.0	-0.0	-0.0	-8.811484336853027	52.196022033691406	-443.7860412597656	2.818702220916748	-52.78218460083008	-337.4945068359375	-0.0	-0.0	-0.0	-0.0	-0.0	-0.0	61532.734375	35762.30078125	-6466.681640625
0.004	-0.0	-0.0	-0.0	-9.093010902404783	51.95656967163086	-443.7854614257813	3.056392908096313	-52.83639526367188	-336.87548828125	-0.0	-0.0	-0.0	-0.0	-0.0	-0.0	61332.8828125	35788.5	-6562.255859375
0.0045000000000000005	-0.0	-0.0	-0.0	-8.831840515136719	52.20994186401367	-443.75628662109375	2.798380851745605	-52.79627990722656	-335.10614013671875	-0.0	-0.0	-0.0	-0.0	-0.0	-0.0	61171.79296875	35586.09765625	-6462.6435546875
0.005	-0.0	-0.0	-0.0	-8.914234161376953	51.69563293457031	-443.7298889160156	2.9477105140686035	-52.58548355102539	-333.9236755371094	-0.0	-0.0	-0.0	-0.0	-0.0	-0.0	61199.7890625	35447.0546875	-6539.44921875
0.0055	-0.0	-0.0	-0.0	-8.742630004882812	51.72289276123047	-443.0510864257813	3.1732611656188965	-52.61949157714844	-334.1381225585937	-0.0	-0.0	-0.0	-0.0	-0.0	-0.0	61074.57421875	35606.6328125	-6418.541015625
0.006	-0.0	-0.0	-0.0	-8.76971435546875	51.64788818359375	-442.3705139160156	3.3026928901672363	-52.531097412109375	-334.3528137207031	-0.0	-0.0	-0.0	-0.0	-0.0	-0.0	61059.69140625	35461.75	-6331.6513671875
0.006500000000000001	-0.0	-0.0	-0.0	-8.248929977416992	51.89466094970703	-444.3003540039063	3.33688759803772	-52.46308135986328	-334.0575256347656	-0.0	-0.0	-0.0	-0.0	-0.0	-0.0	60969.59375	35338.265625	-6359.05712890625
0.007	-0.0	-0.0	-0.0	-8.35161018371582	51.71647262573242	-443.511474609375	3.193588256835937	-52.34082412719727	-334.1914367675781	-0.0	-0.0	-0.0	-0.0	-0.0	-0.0	60947.64453125	35200.6328125	-6299.7998046875
0.0075	-0.0	-0.0	-0.0	-7.85052490234375	51.79245376586914	-443.3455505371094	3.480324506759644	-52.33373641967773	-333.3835144042969	-0.0	-0.0	-0.0	-0.0	-0.0	-0.0	60895.9453125	35283.29296875	-6288.20654296875
0.008	-0.0	-0.0	-0.0	-8.186373710632324	51.7795295715332	-442.5863952636719	3.835240125656128	-52.23198699951172	-333.6787109375	-0.0	-0.0	-0.0	-0.0	-0.0	-0.0	60727.71875	35388.23828125	-6301.7685546875
0.0085	-0.0	-0.0	-0.0	-7.191978931427002	51.57246398925781	-443.76080322265625	3.882525682449341	-52.44242858886719	-333.2243957519531	-0.0	-0.0	-0.0	-0.0	-0.0	-0.0	60972.109375	35248.4140625	-6153.52880859375
0.009000000000000001	-0.0	-0.0	-0.0	-7.480777263641357	51.41534805297852	-441.6096801757813	4.080696105957031	-52.1981201171875	-334.6208801269531	-0.0	-0.0	-0.0	-0.0	-0.0	-0.0	60842.85546875	35178.0625	-6087.0927734375
0.0095	-0.0	-0.0	-0.0	-7.047630310058594	51.339111328125	-442.0973510742188	4.237229347229004	-52.57220077514648	-334.4360046386719	-0.0	-0.0	-0.0	-0.0	-0.0	-0.0	61001.1328125	35150.71484375	-6080.12841796875
0.01	-0.0	-0.0	-0.0	-6.937140941619873	51.462181091308594	-442.5846862792969	4.667796611785889	-52.50967025756836	-332.74151611328125	-0.0	-0.0	-0.0	-0.0	-0.0	-0.0	61103.2734375	35021.73828125	-6072.80908203125
0.0105	-0.0	-0.0	-0.0	-6.635509967803955	51.5638542175293	-441.9624633789063	4.680644512176514	-52.58509826660156	-333.25616455078125	-0.0	-0.0	-0.0	-0.0	-0.0	-0.0	60925.3984375	34955.94140625	-5993.59375
0.011	-0.0	-0.0	-0.0	-6.58910083770752	51.22858047485352	-441.0369262695313	4.680572032928467	-52.471439361572266	-334.83642578125	-0.0	-0.0	-0.0	-0.0	-0.0	-0.0	60929.75390625	34839.99609375	-5942.806640625
0.0115	-0.0	-0.0	-0.0	-6.447892189025879	51.517372131347656	-442.3514404296875	5.233936309814453	-52.618648529052734	-334.43768310546875	-0.0	-0.0	-0.0	-0.0	-0.0	-0.0	60651.375	34986.8359375	-5883.123046875
0.012	-0.0	-0.0	-0.0	-6.075615406036377	50.917964935302734	-442.66839599609375	5.022780418395996	-52.28643798828125	-333.13983154296875	-0.0	-0.0	-0.0	-0.0	-0.0	-0.0	60918.2578125	34938.78125	-5908.67529296875
0.0125	-0.0	-0.0	-0.0	-5.629735946655273	51.48361587524414	-440.158447265625	5.276559352874756	-52.28989028930664	-332.0919494628906	-0.0	-0.0	-0.0	-0.0	-0.0	-0.0	60769.78515625	34661.66796875	-5830.80712890625
0.013000000000000001	-0.0	-0.0	-0.0	-6.100067615509033	51.37283706665039	-441.9140319824219	5.093353271484375	-52.618438720703125	-333.22314453125	-0.0	-0.0	-0.0	-0.0	-0.0	-0.0	60763.625	34535.44921875	-5857.66455078125
0.0135	-0.0	-0.0	-0.0	-5.875954627990723	51.2717399597168	-441.828125	5.346988677978516	-52.353397369384766	-331.4772644042969	-0.0	-0.0	-0.0	-0.0	-0.0	-0.0	60590.6171875	34549.0078125	-5805.22705078125
0.014	-0.0	-0.0	-0.0	-6.266578674316406	51.47189331054688	-439.5361022949219	5.699013233184815	-52.49392318725586	-333.1753845214844	-0.0	-0.0	-0.0	-0.0	-0.0	-0.0	60599.5703125	34641.171875	-5752.87060546875
0.0145	-0.0	-0.0	-0.0	-5.943456649780273	51.47357940673828	-439.9351196289063	5.555222034454346	-52.59440994262695	-332.7035827636719	-0.0	-0.0	-0.0	-0.0	-0.0	-0.0	60611.9296875	34705.45703125	-5782.67431640625
0.015	-0.0	-0.0	-0.0	-5.977104187011719	51.31714630126953	-441.4289245605469	5.789907455444336	-52.59657669067383	-333.6570129394531	-0.0	-0.0	-0.0	-0.0	-0.0	-0.0	60505.75	34784.69140625	-5697.49169921875
0.0155	-0.0	-0.0	-0.0	-5.764118671417236	51.58446502685547	-440.1078186035156	5.500068664550781	-52.694705963134766	-333.4860534667969	-0.0	-0.0	-0.0	-0.0	-0.0	-0.0	60610.81640625	34732.41015625	-5753.0986328125
0.016	-0.0	-0.0	-0.0	-5.274832248687744	51.46175384521485	-440.1073913574219	5.588779449462891	-52.78158187866211	-333.8747863769531	-0.0	-0.0	-0.0	-0.0	-0.0	-0.0	60896.1640625	34759.328125	-5645.599609375
0.0165	-0.0	-0.0	-0.0	-5.452739715576172	51.63998031616211	-440.6806945800781	6.08762788772583	-52.672996520996094	-334.0519714355469	-0.0	-0.0	-0.0	-0.0	-0.0	-0.0	60873.13671875	34765.0	-5645.216796875
0.017	-0.0	-0.0	-0.0	-5.241151332855225	51.38374710083008	-441.4311218261719	6.243137836456299	-52.98255157470703	-334.4422302246094	-0.0	-0.0	-0.0	-0.0	-0.0	-0.0	60932.57421875	34831.83984375	-5593.19482421875
0.0175	-0.0	-0.0	-0.0	-5.352630615234375	51.6509895324707	-443.4616394042969	6.0436625480651855	-52.91596984863281	-335.7972106933594	-0.0	-0.0	-0.0	-0.0	-0.0	-0.0	61045.50390625	34799.265625	-5649.0986328125
0.018000000000000002	-0.0	-0.0	-0.0	-5.27440357208252	51.81813430786133	-443.1973571777344	6.497977256774902	-52.993011474609375	-336.7574462890625	-0.0	-0.0	-0.0	-0.0	-0.0	-0.0	61198.8671875	34780.9453125	-5530.10205078125
0.0185	-0.0	-0.0	-0.0	-5.207573890686035	51.61737823486328	-443.19775390625	6.564598083496094	-53.0482063293457	-335.97137451171875	-0.0	-0.0	-0.0	-0.0	-0.0	-0.0	61523.171875	34740.88671875	-5559.69970703125
0.019	-0.0	-0.0	-0.0	-5.018342971801758	51.57320785522461	-443.3727722167969	6.686549663543701	-52.80520248413086	-336.2330322265625	-0.0	-0.0	-0.0	-0.0	-0.0	-0.0	61452.1796875	34689.42578125	-5537.28369140625
0.0195	-0.0	-0.0	-0.0	-5.152881622314453	51.81802749633789	-444.2581481933594	6.853032112121582	-53.11439514160156	-337.1927185058594	-0.0	-0.0	-0.0	-0.0	-0.0	-0.0	61230.59765625	34822.60546875	-5403.66064453125
0.02	-0.0	-0.0	-0.0	-5.086581707000732	52.10806274414063	-443.8991394042969	6.952610492706299	-53.280250549316406	-337.1074523925781	-0.0	-0.0	-0.0	-0.0	-0.0	-0.0	61421.08984375	34805.8515625	-5459.291015625
0.0205	-0.0	-0.0	-0.0	-4.96256685256958	52.16403198242188	-444.57080078125	7.1193037033081055	-53.169654846191406	-336.3213195800781	-0.0	-0.0	-0.0	-0.0	-0.0	-0.0	61373.76171875	34742.53515625	-5436.60888671875
